<svg xmlns="http://www.w3.org/2000/svg" viewBox="0 0 320 140">
  <defs>
    <linearGradient id="lensGradient" x1="0%" y1="0%" x2="100%" y2="100%">
      <stop offset="0%" stop-color="#ffffff" stop-opacity="0.7" />
      <stop offset="100%" stop-color="#dbeafe" stop-opacity="0.4" />
    </linearGradient>
  </defs>
  <g class="frame" fill="#1f1f1f" stroke="#1f1f1f" stroke-width="6" stroke-linecap="round" stroke-linejoin="round">
    <path d="M70 40c-28 0-50 22-50 50s22 50 50 50 50-22 50-50-22-50-50-50zm0 14c19.882 0 36 16.118 36 36s-16.118 36-36 36-36-16.118-36-36 16.118-36 36-36z" />
    <path d="M250 40c-28 0-50 22-50 50s22 50 50 50 50-22 50-50-22-50-50-50zm0 14c19.882 0 36 16.118 36 36s-16.118 36-36 36-36-16.118-36-36 16.118-36 36-36z" />
    <path d="M120 80h80" />
    <path d="M30 82L8 74" />
    <path d="M292 82l22-8" />
  </g>
  <g class="bridge" fill="none" stroke="#1f1f1f" stroke-width="6" stroke-linecap="round">
    <path d="M135 78c10-20 40-20 50 0" />
  </g>
  <g class="lens" fill="url(#lensGradient)" opacity="0.9" stroke="#ffffff" stroke-width="2">
    <ellipse cx="70" cy="90" rx="34" ry="36" />
    <ellipse cx="250" cy="90" rx="34" ry="36" />
  </g>
</svg>
