<svg width="118" height="40" viewBox="0 0 118 40" fill="none" xmlns="http://www.w3.org/2000/svg">
<rect width="40" height="40" rx="20" fill="#3A3A3A"/>
<mask id="path-2-inside-1_1_114" fill="white">
<path d="M8 20C8 13.3726 13.3726 8 20 8V8C26.6274 8 32 13.3726 32 20V20C32 26.6274 26.6274 32 20 32V32C13.3726 32 8 26.6274 8 20V20Z"/>
</mask>
<path d="M20 32V30C14.4772 30 10 25.5228 10 20H8H6C6 27.732 12.268 34 20 34V32ZM32 20H30C30 25.5228 25.5228 30 20 30V32V34C27.732 34 34 27.732 34 20H32ZM20 8V10C25.5228 10 30 14.4772 30 20H32H34C34 12.268 27.732 6 20 6V8ZM20 8V6C12.268 6 6 12.268 6 20H8H10C10 14.4772 14.4772 10 20 10V8Z" fill="#D4C5A0" mask="url(#path-2-inside-1_1_114)"/>
<path d="M63.024 13.008C62.96 13.744 62.912 14.464 62.88 15.168C62.864 15.856 62.856 16.384 62.856 16.752C62.856 17.12 62.864 17.464 62.88 17.784C62.896 18.104 62.912 18.384 62.928 18.624H62.376C62.152 17.344 61.88 16.344 61.56 15.624C61.24 14.888 60.816 14.36 60.288 14.04C59.776 13.72 59.096 13.56 58.248 13.56H57.48V27.24C57.48 27.896 57.536 28.384 57.648 28.704C57.776 29.024 58.024 29.24 58.392 29.352C58.76 29.448 59.296 29.504 60 29.52V30C59.52 29.968 58.896 29.952 58.128 29.952C57.36 29.936 56.576 29.928 55.776 29.928C54.944 29.928 54.16 29.936 53.424 29.952C52.704 29.952 52.12 29.968 51.672 30V29.52C52.36 29.504 52.888 29.448 53.256 29.352C53.624 29.24 53.872 29.024 54 28.704C54.128 28.384 54.192 27.896 54.192 27.24V13.56H53.4C52.568 13.56 51.888 13.72 51.36 14.04C50.832 14.36 50.408 14.888 50.088 15.624C49.768 16.344 49.504 17.344 49.296 18.624H48.744C48.776 18.384 48.792 18.104 48.792 17.784C48.808 17.464 48.816 17.12 48.816 16.752C48.816 16.384 48.8 15.856 48.768 15.168C48.752 14.464 48.712 13.744 48.648 13.008C49.352 13.024 50.128 13.04 50.976 13.056C51.824 13.072 52.672 13.08 53.52 13.08C54.368 13.08 55.144 13.08 55.848 13.08C56.536 13.08 57.304 13.08 58.152 13.08C59 13.08 59.848 13.072 60.696 13.056C61.544 13.04 62.32 13.024 63.024 13.008ZM67.7006 30.168C67.0126 30.168 66.4286 30.04 65.9486 29.784C65.4686 29.512 65.1086 29.152 64.8686 28.704C64.6286 28.24 64.5086 27.728 64.5086 27.168C64.5086 26.48 64.6686 25.92 64.9886 25.488C65.3086 25.04 65.7166 24.688 66.2126 24.432C66.7246 24.16 67.2606 23.936 67.8206 23.76C68.3806 23.568 68.9086 23.392 69.4046 23.232C69.9006 23.056 70.3086 22.856 70.6286 22.632C70.9486 22.408 71.1086 22.112 71.1086 21.744V19.992C71.1086 19.48 71.0286 19.064 70.8686 18.744C70.7246 18.408 70.5006 18.16 70.1966 18C69.9086 17.824 69.5406 17.736 69.0926 17.736C68.7566 17.736 68.4046 17.784 68.0366 17.88C67.6686 17.976 67.3646 18.16 67.1246 18.432C67.5406 18.544 67.8606 18.752 68.0846 19.056C68.3246 19.36 68.4446 19.728 68.4446 20.16C68.4446 20.656 68.2766 21.048 67.9406 21.336C67.6206 21.608 67.2126 21.744 66.7166 21.744C66.1886 21.744 65.7886 21.576 65.5166 21.24C65.2446 20.904 65.1086 20.512 65.1086 20.064C65.1086 19.616 65.2206 19.248 65.4446 18.96C65.6686 18.656 65.9806 18.384 66.3806 18.144C66.7806 17.872 67.2926 17.656 67.9166 17.496C68.5406 17.336 69.2206 17.256 69.9566 17.256C70.6606 17.256 71.2846 17.336 71.8286 17.496C72.3726 17.64 72.8366 17.904 73.2206 18.288C73.6046 18.656 73.8526 19.112 73.9646 19.656C74.0766 20.2 74.1326 20.864 74.1326 21.648V28.224C74.1326 28.624 74.1806 28.912 74.2766 29.088C74.3726 29.248 74.5246 29.328 74.7326 29.328C74.8926 29.328 75.0446 29.288 75.1886 29.208C75.3326 29.128 75.4926 29.016 75.6686 28.872L75.9326 29.28C75.5806 29.552 75.2126 29.768 74.8286 29.928C74.4446 30.088 73.9806 30.168 73.4366 30.168C72.8766 30.168 72.4286 30.088 72.0926 29.928C71.7726 29.768 71.5326 29.536 71.3726 29.232C71.2286 28.928 71.1486 28.568 71.1326 28.152C70.7486 28.792 70.2766 29.288 69.7166 29.64C69.1566 29.992 68.4846 30.168 67.7006 30.168ZM69.1406 28.824C69.5246 28.824 69.8766 28.72 70.1966 28.512C70.5326 28.304 70.8366 27.992 71.1086 27.576V22.728C70.9486 22.968 70.7166 23.184 70.4126 23.376C70.1246 23.568 69.8126 23.76 69.4766 23.952C69.1406 24.144 68.8206 24.368 68.5166 24.624C68.2286 24.864 67.9806 25.168 67.7726 25.536C67.5806 25.888 67.4846 26.344 67.4846 26.904C67.4846 27.528 67.6366 28.008 67.9406 28.344C68.2446 28.664 68.6446 28.824 69.1406 28.824ZM91.0813 13.008V13.488C90.7613 13.6 90.4093 13.856 90.0253 14.256C89.6413 14.64 89.2973 15.248 88.9933 16.08L83.7373 30.072C83.6413 30.072 83.5373 30.064 83.4253 30.048C83.3293 30.048 83.2253 30.048 83.1133 30.048C83.0013 30.048 82.8893 30.048 82.7773 30.048C82.6813 30.064 82.5853 30.072 82.4893 30.072L76.4653 15.024C76.2253 14.432 75.9613 14.032 75.6733 13.824C75.4013 13.616 75.1453 13.504 74.9053 13.488V13.008C75.3213 13.024 75.8253 13.04 76.4173 13.056C77.0253 13.072 77.6173 13.08 78.1933 13.08C78.8973 13.08 79.5533 13.072 80.1613 13.056C80.7853 13.04 81.2813 13.024 81.6493 13.008V13.488C81.1213 13.504 80.7133 13.568 80.4253 13.68C80.1533 13.776 80.0013 13.968 79.9693 14.256C79.9373 14.528 80.0253 14.944 80.2333 15.504L84.6493 26.856L84.1933 27.408L87.7933 17.808C88.1933 16.736 88.3933 15.888 88.3933 15.264C88.3933 14.64 88.2173 14.192 87.8653 13.92C87.5133 13.648 87.0093 13.504 86.3533 13.488V13.008C86.8813 13.024 87.3773 13.04 87.8413 13.056C88.3213 13.072 88.7933 13.08 89.2573 13.08C89.6413 13.08 89.9773 13.072 90.2653 13.056C90.5693 13.04 90.8413 13.024 91.0813 13.008ZM102.938 17.328V27.408C102.938 28.128 103.058 28.664 103.298 29.016C103.538 29.352 103.962 29.52 104.57 29.52V30.024C104.074 29.976 103.578 29.952 103.082 29.952C102.49 29.952 101.922 29.976 101.378 30.024C100.85 30.072 100.362 30.16 99.9139 30.288V27.888C99.5139 28.768 98.9619 29.4 98.2579 29.784C97.5699 30.152 96.8259 30.336 96.0259 30.336C95.4019 30.336 94.8739 30.248 94.4419 30.072C94.0259 29.912 93.6899 29.688 93.4339 29.4C93.1619 29.096 92.9699 28.696 92.8579 28.2C92.7459 27.704 92.6899 27.064 92.6899 26.28V20.208C92.6899 19.488 92.5699 18.96 92.3299 18.624C92.1059 18.272 91.6819 18.096 91.0579 18.096V17.592C91.5699 17.64 92.0659 17.664 92.5459 17.664C93.1379 17.664 93.6979 17.64 94.2259 17.592C94.7699 17.528 95.2659 17.44 95.7139 17.328V27.12C95.7139 27.552 95.7459 27.936 95.8099 28.272C95.8899 28.608 96.0419 28.88 96.2659 29.088C96.4899 29.28 96.8259 29.376 97.2739 29.376C97.7699 29.376 98.2179 29.232 98.6179 28.944C99.0179 28.656 99.3299 28.264 99.5539 27.768C99.7939 27.272 99.9139 26.712 99.9139 26.088V20.208C99.9139 19.488 99.7939 18.96 99.5539 18.624C99.3299 18.272 98.9059 18.096 98.2819 18.096V17.592C98.7939 17.64 99.2899 17.664 99.7699 17.664C100.362 17.664 100.922 17.64 101.45 17.592C101.994 17.528 102.49 17.44 102.938 17.328ZM112.314 17.256C113.722 17.256 114.826 17.68 115.626 18.528C116.426 19.376 116.826 20.728 116.826 22.584H108.738L108.714 22.128H114.042C114.074 21.344 114.026 20.624 113.898 19.968C113.77 19.296 113.562 18.76 113.274 18.36C113.002 17.96 112.642 17.76 112.194 17.76C111.586 17.76 111.058 18.12 110.61 18.84C110.162 19.544 109.882 20.704 109.77 22.32L109.866 22.464C109.834 22.672 109.81 22.896 109.794 23.136C109.794 23.376 109.794 23.616 109.794 23.856C109.794 24.96 109.954 25.872 110.274 26.592C110.594 27.312 111.01 27.84 111.522 28.176C112.034 28.512 112.562 28.68 113.106 28.68C113.474 28.68 113.85 28.624 114.234 28.512C114.618 28.4 114.994 28.192 115.362 27.888C115.73 27.584 116.066 27.152 116.37 26.592L116.826 26.784C116.65 27.344 116.354 27.904 115.938 28.464C115.538 29.008 115.018 29.456 114.378 29.808C113.738 30.16 112.986 30.336 112.122 30.336C111.034 30.336 110.074 30.096 109.242 29.616C108.41 29.136 107.762 28.424 107.298 27.48C106.834 26.52 106.602 25.352 106.602 23.976C106.602 22.52 106.842 21.296 107.322 20.304C107.818 19.312 108.498 18.56 109.362 18.048C110.226 17.52 111.21 17.256 112.314 17.256Z" fill="#1A1A1A"/>
</svg>
